<svg width="913" height="214" viewBox="0 0 913 214" fill="none" xmlns="http://www.w3.org/2000/svg">
<rect x="43.5996" y="106.797" width="30.1753" height="30.1753" rx="7.54383" transform="rotate(-45 43.5996 106.797)" fill="#569AD8" fill-opacity="0.5"/>
<rect x="129.096" y="106.797" width="30.1753" height="30.1753" rx="7.54383" transform="rotate(-45 129.096 106.797)" fill="#EA9F00" fill-opacity="0.5"/>
<rect x="86.3477" y="149.545" width="30.1753" height="30.1753" rx="7.54383" transform="rotate(-45 86.3477 149.545)" fill="#53A692" fill-opacity="0.5"/>
<rect x="86.3867" y="64.0852" width="30.1753" height="30.1753" rx="7.54383" transform="rotate(-45 86.3867 64.0852)" fill="#7E69BE" fill-opacity="0.5"/>
<rect x="0.851562" y="106.833" width="30.1753" height="30.1753" rx="7.54383" transform="rotate(-45 0.851562 106.833)" fill="#569AD8"/>
<rect x="171.881" y="106.87" width="30.1753" height="30.1753" rx="7.54383" transform="rotate(-45 171.881 106.87)" fill="#F97316"/>
<rect x="43.5996" y="149.582" width="30.1753" height="30.1753" rx="7.54383" transform="rotate(-45 43.5996 149.582)" fill="#10B981"/>
<rect x="129.096" y="149.582" width="30.1753" height="30.1753" rx="7.54383" transform="rotate(-45 129.096 149.582)" fill="#EA9F00"/>
<rect x="43.5996" y="64.0852" width="30.1753" height="30.1753" rx="7.54383" transform="rotate(-45 43.5996 64.0852)" fill="#0284C7"/>
<rect x="86.3477" y="192.33" width="30.1753" height="30.1753" rx="7.54383" transform="rotate(-45 86.3477 192.33)" fill="#53A692"/>
<rect x="86.3477" y="21.3372" width="30.1753" height="30.1753" rx="7.54383" transform="rotate(-45 86.3477 21.3372)" fill="#9333EA"/>
<rect x="129.096" y="64.0852" width="30.1753" height="30.1753" rx="7.54383" transform="rotate(-45 129.096 64.0852)" fill="#E11D48"/>
<path opacity="0.8" d="M307.18 157.834H289.183L325.426 56.0155H345.661L381.903 157.834H363.906L335.916 75.703H335.121L307.18 157.834ZM308.821 117.962H362.116V131.783H308.821V117.962ZM389.913 157.834V81.4701H406.369V157.834H389.913ZM398.216 70.1845C395.498 70.1845 393.161 69.2731 391.206 67.4502C389.283 65.6273 388.322 63.4232 388.322 60.8379C388.322 58.2859 389.283 56.0984 391.206 54.2754C393.161 52.4525 395.498 51.5411 398.216 51.5411C400.934 51.5411 403.254 52.4525 405.176 54.2754C407.131 56.0984 408.109 58.2859 408.109 60.8379C408.109 63.4232 407.131 65.6273 405.176 67.4502C403.254 69.2731 400.934 70.1845 398.216 70.1845ZM448.484 159.226C442.385 159.226 436.95 157.668 432.177 154.552C427.404 151.437 423.643 146.946 420.892 141.079C418.141 135.18 416.765 128.087 416.765 119.801C416.765 111.416 418.157 104.29 420.941 98.4232C423.725 92.5567 427.52 88.0988 432.326 85.0496C437.132 82.0004 442.551 80.4757 448.583 80.4757C453.19 80.4757 456.936 81.2546 459.819 82.8124C462.703 84.337 464.973 86.1599 466.63 88.2811C468.287 90.3692 469.563 92.2584 470.458 93.9488H471.254V56.0155H487.71V157.834H471.602V145.852H470.458C469.53 147.609 468.205 149.531 466.481 151.619C464.791 153.707 462.487 155.497 459.571 156.989C456.687 158.48 452.992 159.226 448.484 159.226ZM452.66 145.554C456.704 145.554 460.134 144.477 462.951 142.322C465.769 140.135 467.906 137.102 469.365 133.224C470.856 129.313 471.602 124.789 471.602 119.652C471.602 114.515 470.873 110.04 469.414 106.229C467.956 102.417 465.818 99.4672 463.001 97.3791C460.184 95.2579 456.737 94.1973 452.66 94.1973C448.418 94.1973 444.871 95.3077 442.021 97.5283C439.171 99.7158 437.033 102.732 435.608 106.577C434.182 110.388 433.47 114.747 433.47 119.652C433.47 124.59 434.199 129.015 435.657 132.926C437.116 136.837 439.253 139.919 442.071 142.173C444.921 144.427 448.451 145.554 452.66 145.554ZM535.716 159.375C528.126 159.375 521.58 157.767 516.078 154.552C510.576 151.304 506.35 146.747 503.401 140.881C500.451 134.981 498.976 128.07 498.976 120.149C498.976 112.294 500.451 105.383 503.401 99.4175C506.384 93.4516 510.543 88.8114 515.879 85.497C521.216 82.1495 527.48 80.4757 534.672 80.4757C539.213 80.4757 543.538 81.2049 547.648 82.6632C551.758 84.1216 555.42 86.4085 558.635 89.524C561.85 92.6064 564.385 96.5837 566.242 101.456C568.131 106.328 569.075 112.161 569.075 118.956V124.325H507.378V112.692H553.117C553.117 109.046 552.354 105.798 550.83 102.947C549.305 100.064 547.167 97.7934 544.416 96.1363C541.698 94.4791 538.517 93.6505 534.871 93.6505C530.927 93.6505 527.48 94.5951 524.53 96.4843C521.613 98.3735 519.343 100.859 517.719 103.942C516.128 107.024 515.316 110.372 515.283 113.984V123.579C515.283 128.352 516.144 132.429 517.868 135.81C519.591 139.19 521.994 141.775 525.077 143.565C528.159 145.322 531.755 146.2 535.865 146.2C538.616 146.2 541.102 145.819 543.323 145.057C545.543 144.261 547.449 143.101 549.04 141.577C550.664 140.019 551.907 138.096 552.769 135.81L568.23 138.047C567.136 142.322 565.115 146.068 562.165 149.283C559.248 152.464 555.536 154.95 551.028 156.74C546.554 158.497 541.45 159.375 535.716 159.375ZM638.129 159.226C632.031 159.226 626.595 157.668 621.822 154.552C617.05 151.437 613.288 146.946 610.537 141.079C607.786 135.18 606.411 128.087 606.411 119.801C606.411 111.416 607.803 104.29 610.587 98.4232C613.371 92.5567 617.166 88.0988 621.972 85.0496C626.777 82.0004 632.196 80.4757 638.229 80.4757C642.836 80.4757 646.581 81.2546 649.464 82.8124C652.348 84.337 654.618 86.1599 656.276 88.2811C657.933 90.3692 659.209 92.2584 660.104 93.9488H660.899V56.0155H677.355V157.834H661.247V145.852H660.104C659.176 147.609 657.85 149.531 656.126 151.619C654.436 153.707 652.133 155.497 649.216 156.989C646.332 158.48 642.637 159.226 638.129 159.226ZM642.305 145.554C646.349 145.554 649.779 144.477 652.597 142.322C655.414 140.135 657.552 137.102 659.01 133.224C660.501 129.313 661.247 124.789 661.247 119.652C661.247 114.515 660.518 110.04 659.06 106.229C657.601 102.417 655.464 99.4672 652.646 97.3791C649.829 95.2579 646.382 94.1973 642.305 94.1973C638.063 94.1973 634.517 95.3077 631.666 97.5283C628.816 99.7158 626.678 102.732 625.253 106.577C623.828 110.388 623.115 114.747 623.115 119.652C623.115 124.59 623.844 129.015 625.303 132.926C626.761 136.837 628.899 139.919 631.716 142.173C634.566 144.427 638.096 145.554 642.305 145.554ZM724.715 159.375C717.39 159.375 711.027 157.734 705.624 154.453C700.222 151.139 696.029 146.532 693.046 140.632C690.096 134.732 688.621 127.855 688.621 120C688.621 112.078 690.096 105.151 693.046 99.2186C696.029 93.2859 700.222 88.6789 705.624 85.3976C711.027 82.1164 717.39 80.4757 724.715 80.4757C732.04 80.4757 738.403 82.1164 743.806 85.3976C749.208 88.6789 753.384 93.2859 756.334 99.2186C759.317 105.151 760.809 112.078 760.809 120C760.809 127.855 759.317 134.732 756.334 140.632C753.384 146.532 749.208 151.139 743.806 154.453C738.403 157.734 732.04 159.375 724.715 159.375ZM724.765 145.902C729.14 145.902 732.752 144.725 735.603 142.372C738.486 140.019 740.641 136.887 742.066 132.976C743.491 129.032 744.204 124.69 744.204 119.95C744.204 115.177 743.491 110.819 742.066 106.875C740.641 102.898 738.486 99.7324 735.603 97.3791C732.752 94.9928 729.14 93.7996 724.765 93.7996C720.357 93.7996 716.711 94.9928 713.827 97.3791C710.944 99.7324 708.789 102.898 707.364 106.875C705.939 110.819 705.226 115.177 705.226 119.95C705.226 124.69 705.939 129.032 707.364 132.976C708.789 136.887 710.944 140.019 713.827 142.372C716.711 144.725 720.357 145.902 724.765 145.902ZM803.881 159.375C796.39 159.375 789.944 157.701 784.541 154.354C779.172 150.973 775.029 146.333 772.112 140.433C769.229 134.5 767.787 127.689 767.787 120C767.787 112.211 769.262 105.35 772.212 99.4175C775.161 93.4847 779.321 88.8446 784.69 85.497C790.093 82.1495 796.44 80.4757 803.731 80.4757C809.731 80.4757 815.067 81.5861 819.74 83.8067C824.413 85.9942 828.159 89.0766 830.976 93.0539C833.826 97.0311 835.483 101.688 835.947 107.024H820.088C819.359 103.378 817.619 100.296 814.868 97.7769C812.15 95.2579 808.521 93.9985 803.98 93.9985C800.069 93.9985 796.639 95.0425 793.689 97.1306C790.772 99.1855 788.485 102.135 786.828 105.98C785.204 109.792 784.392 114.349 784.392 119.652C784.392 125.021 785.204 129.661 786.828 133.572C788.452 137.45 790.722 140.45 793.639 142.571C796.589 144.659 800.036 145.703 803.98 145.703C806.731 145.703 809.2 145.189 811.388 144.162C813.608 143.134 815.464 141.659 816.956 139.737C818.481 137.782 819.525 135.428 820.088 132.677H835.947C835.45 137.848 833.843 142.455 831.125 146.498C828.407 150.509 824.728 153.658 820.088 155.944C815.481 158.231 810.079 159.375 803.881 159.375ZM904.586 100.909L889.621 102.997C889.124 101.307 888.279 99.7158 887.086 98.2243C885.926 96.6997 884.351 95.4568 882.363 94.4956C880.374 93.5344 877.905 93.0539 874.955 93.0539C870.978 93.0539 867.647 93.9322 864.962 95.6888C862.311 97.4454 860.985 99.7158 860.985 102.5C860.985 104.886 861.88 106.809 863.669 108.267C865.459 109.725 868.359 110.935 872.37 111.896L884.998 114.68C892.124 116.271 897.427 118.757 900.907 122.138C904.387 125.518 906.143 129.926 906.177 135.362C906.143 140.069 904.768 144.228 902.05 147.841C899.365 151.42 895.62 154.238 890.814 156.293C886.042 158.347 880.523 159.375 874.259 159.375C865.277 159.375 858.018 157.486 852.483 153.707C846.948 149.896 843.584 144.543 842.391 137.649L858.35 135.66C859.212 139.273 860.985 142.007 863.669 143.864C866.354 145.686 869.851 146.598 874.16 146.598C878.733 146.598 882.396 145.653 885.147 143.764C887.898 141.842 889.29 139.505 889.323 136.754C889.29 134.434 888.411 132.528 886.688 131.037C884.998 129.512 882.346 128.352 878.733 127.557L865.807 124.723C858.549 123.165 853.196 120.596 849.749 117.017C846.302 113.404 844.595 108.864 844.628 103.395C844.595 98.7878 845.855 94.7773 848.407 91.3635C850.959 87.9166 854.505 85.2485 859.046 83.3593C863.62 81.4369 868.873 80.4757 874.806 80.4757C883.39 80.4757 890.151 82.3318 895.09 86.0439C900.062 89.7229 903.227 94.6779 904.586 100.909Z" fill="white"/>
</svg>
