<svg width="917" height="215" viewBox="0 0 917 215" fill="none" xmlns="http://www.w3.org/2000/svg">
<rect x="43.5996" y="107.459" width="30.1753" height="30.1753" rx="7.54383" transform="rotate(-45 43.5996 107.459)" fill="#569AD8" fill-opacity="0.5"/>
<rect x="129.096" y="107.459" width="30.1753" height="30.1753" rx="7.54383" transform="rotate(-45 129.096 107.459)" fill="#EA9F00" fill-opacity="0.5"/>
<rect x="86.3477" y="150.208" width="30.1753" height="30.1753" rx="7.54383" transform="rotate(-45 86.3477 150.208)" fill="#53A692" fill-opacity="0.5"/>
<rect x="86.3867" y="64.7478" width="30.1753" height="30.1753" rx="7.54383" transform="rotate(-45 86.3867 64.7478)" fill="#7E69BE" fill-opacity="0.5"/>
<rect x="0.851562" y="107.496" width="30.1753" height="30.1753" rx="7.54383" transform="rotate(-45 0.851562 107.496)" fill="#569AD8"/>
<rect x="171.881" y="107.533" width="30.1753" height="30.1753" rx="7.54383" transform="rotate(-45 171.881 107.533)" fill="#F97316"/>
<rect x="43.5996" y="150.245" width="30.1753" height="30.1753" rx="7.54383" transform="rotate(-45 43.5996 150.245)" fill="#10B981"/>
<rect x="129.096" y="150.245" width="30.1753" height="30.1753" rx="7.54383" transform="rotate(-45 129.096 150.245)" fill="#EA9F00"/>
<rect x="43.5996" y="64.7478" width="30.1753" height="30.1753" rx="7.54383" transform="rotate(-45 43.5996 64.7478)" fill="#0284C7"/>
<rect x="86.3477" y="192.993" width="30.1753" height="30.1753" rx="7.54383" transform="rotate(-45 86.3477 192.993)" fill="#53A692"/>
<rect x="86.3477" y="21.9998" width="30.1753" height="30.1753" rx="7.54383" transform="rotate(-45 86.3477 21.9998)" fill="#9333EA"/>
<rect x="129.096" y="64.7478" width="30.1753" height="30.1753" rx="7.54383" transform="rotate(-45 129.096 64.7478)" fill="#E11D48"/>
<path opacity="0.8" d="M308.821 158.496H289.134L324.979 56.6781H347.749L383.643 158.496H363.956L336.761 77.5588H335.966L308.821 158.496ZM309.467 118.574H363.161V133.39H309.467V118.574ZM391.206 158.496V82.1327H409.203V158.496H391.206ZM400.254 71.2946C397.371 71.2946 394.901 70.35 392.846 68.4608C390.825 66.5385 389.814 64.235 389.814 61.5503C389.814 58.8325 390.841 56.529 392.896 54.6398C394.951 52.7174 397.404 51.7563 400.254 51.7563C403.104 51.7563 405.541 52.7174 407.562 54.6398C409.617 56.529 410.645 58.8325 410.645 61.5503C410.645 64.235 409.617 66.5385 407.562 68.4608C405.541 70.35 403.104 71.2946 400.254 71.2946ZM450.448 159.839C444.449 159.839 439.079 158.297 434.34 155.215C429.6 152.133 425.855 147.658 423.104 141.792C420.353 135.925 418.978 128.799 418.978 120.414C418.978 111.929 420.37 104.77 423.154 98.9367C425.971 93.0702 429.766 88.6455 434.539 85.6625C439.311 82.6464 444.631 81.1384 450.497 81.1384C454.972 81.1384 458.651 81.9007 461.534 83.4253C464.418 84.9168 466.705 86.7231 468.395 88.8443C470.086 90.9324 471.395 92.9045 472.323 94.7605H473.068V56.6781H491.115V158.496H473.416V146.465H472.323C471.395 148.321 470.052 150.293 468.296 152.381C466.539 154.436 464.219 156.193 461.336 157.651C458.452 159.109 454.823 159.839 450.448 159.839ZM455.469 145.073C459.281 145.073 462.529 144.046 465.213 141.991C467.898 139.903 469.936 137.002 471.328 133.29C472.72 129.578 473.416 125.253 473.416 120.315C473.416 115.376 472.72 111.084 471.328 107.438C469.97 103.792 467.948 100.958 465.263 98.9367C462.612 96.9149 459.347 95.904 455.469 95.904C451.459 95.904 448.111 96.948 445.426 99.0361C442.742 101.124 440.72 104.008 439.361 107.687C438.002 111.366 437.323 115.575 437.323 120.315C437.323 125.087 438.002 129.346 439.361 133.091C440.753 136.804 442.791 139.737 445.476 141.891C448.194 144.012 451.525 145.073 455.469 145.073ZM538.5 159.988C530.844 159.988 524.232 158.397 518.663 155.215C513.128 152 508.869 147.459 505.886 141.593C502.903 135.693 501.412 128.75 501.412 120.762C501.412 112.907 502.903 106.013 505.886 100.08C508.903 94.1142 513.112 89.4741 518.514 86.1597C523.917 82.8121 530.264 81.1384 537.555 81.1384C542.262 81.1384 546.703 81.9007 550.879 83.4253C555.089 84.9168 558.801 87.2369 562.016 90.3855C565.264 93.5342 567.816 97.5446 569.672 102.417C571.528 107.256 572.456 113.023 572.456 119.718V125.236H509.864V113.106H555.205C555.171 109.659 554.426 106.593 552.967 103.908C551.509 101.19 549.471 99.0527 546.852 97.4949C544.267 95.9371 541.251 95.1583 537.804 95.1583C534.125 95.1583 530.894 96.0531 528.109 97.8429C525.325 99.5995 523.154 101.92 521.597 104.803C520.072 107.654 519.293 110.786 519.26 114.199V124.789C519.26 129.23 520.072 133.042 521.696 136.224C523.32 139.372 525.591 141.792 528.507 143.482C531.424 145.139 534.838 145.968 538.749 145.968C541.367 145.968 543.737 145.603 545.858 144.874C547.979 144.112 549.819 143.002 551.376 141.543C552.934 140.085 554.111 138.279 554.906 136.124L571.71 138.013C570.65 142.455 568.628 146.332 565.645 149.647C562.695 152.928 558.917 155.48 554.31 157.303C549.703 159.093 544.433 159.988 538.5 159.988ZM639.546 159.839C633.547 159.839 628.178 158.297 623.438 155.215C618.699 152.133 614.953 147.658 612.202 141.792C609.451 135.925 608.076 128.799 608.076 120.414C608.076 111.929 609.468 104.77 612.252 98.9367C615.069 93.0702 618.864 88.6455 623.637 85.6625C628.41 82.6464 633.729 81.1384 639.596 81.1384C644.07 81.1384 647.749 81.9007 650.633 83.4253C653.516 84.9168 655.803 86.7231 657.494 88.8443C659.184 90.9324 660.493 92.9045 661.421 94.7605H662.167V56.6781H680.214V158.496H662.515V146.465H661.421C660.493 148.321 659.151 150.293 657.394 152.381C655.638 154.436 653.317 156.193 650.434 157.651C647.55 159.109 643.921 159.839 639.546 159.839ZM644.567 145.073C648.379 145.073 651.627 144.046 654.312 141.991C656.996 139.903 659.035 137.002 660.427 133.29C661.819 129.578 662.515 125.253 662.515 120.315C662.515 115.376 661.819 111.084 660.427 107.438C659.068 103.792 657.046 100.958 654.362 98.9367C651.71 96.9149 648.445 95.904 644.567 95.904C640.557 95.904 637.21 96.948 634.525 99.0361C631.84 101.124 629.818 104.008 628.46 107.687C627.101 111.366 626.421 115.575 626.421 120.315C626.421 125.087 627.101 129.346 628.46 133.091C629.852 136.804 631.89 139.737 634.575 141.891C637.292 144.012 640.623 145.073 644.567 145.073ZM727.101 159.988C719.644 159.988 713.181 158.347 707.712 155.066C702.243 151.785 698.001 147.194 694.985 141.295C692.002 135.395 690.51 128.501 690.51 120.613C690.51 112.725 692.002 105.814 694.985 99.8813C698.001 93.9485 702.243 89.3415 707.712 86.0602C713.181 82.779 719.644 81.1384 727.101 81.1384C734.559 81.1384 741.022 82.779 746.491 86.0602C751.959 89.3415 756.185 93.9485 759.168 99.8813C762.184 105.814 763.692 112.725 763.692 120.613C763.692 128.501 762.184 135.395 759.168 141.295C756.185 147.194 751.959 151.785 746.491 155.066C741.022 158.347 734.559 159.988 727.101 159.988ZM727.201 145.57C731.244 145.57 734.625 144.46 737.343 142.239C740.061 139.985 742.082 136.969 743.408 133.191C744.767 129.413 745.447 125.203 745.447 120.563C745.447 115.89 744.767 111.664 743.408 107.886C742.082 104.074 740.061 101.041 737.343 98.7875C734.625 96.5337 731.244 95.4068 727.201 95.4068C723.058 95.4068 719.611 96.5337 716.86 98.7875C714.142 101.041 712.104 104.074 710.745 107.886C709.419 111.664 708.756 115.89 708.756 120.563C708.756 125.203 709.419 129.413 710.745 133.191C712.104 136.969 714.142 139.985 716.86 142.239C719.611 144.46 723.058 145.57 727.201 145.57ZM806.677 159.988C799.054 159.988 792.508 158.314 787.039 154.966C781.604 151.619 777.411 146.995 774.461 141.096C771.545 135.163 770.086 128.335 770.086 120.613C770.086 112.857 771.578 106.013 774.561 100.08C777.544 94.1142 781.753 89.4741 787.188 86.1597C792.657 82.8121 799.12 81.1384 806.578 81.1384C812.776 81.1384 818.261 82.2818 823.034 84.5688C827.84 86.8226 831.668 90.0209 834.518 94.1639C837.368 98.2738 838.992 103.08 839.39 108.582H822.188C821.492 104.903 819.835 101.837 817.217 99.3841C814.632 96.8983 811.168 95.6554 806.826 95.6554C803.147 95.6554 799.916 96.6497 797.132 98.6384C794.348 100.594 792.177 103.411 790.619 107.09C789.094 110.769 788.332 115.177 788.332 120.315C788.332 125.518 789.094 129.993 790.619 133.738C792.144 137.45 794.281 140.317 797.032 142.339C799.816 144.327 803.081 145.322 806.826 145.322C809.478 145.322 811.848 144.824 813.936 143.83C816.057 142.803 817.83 141.328 819.255 139.405C820.68 137.483 821.658 135.146 822.188 132.395H839.39C838.959 137.798 837.368 142.587 834.617 146.763C831.867 150.906 828.121 154.154 823.382 156.508C818.642 158.828 813.074 159.988 806.677 159.988ZM908.923 102.317L892.517 104.107C892.053 102.45 891.241 100.892 890.081 99.4338C888.954 97.9755 887.43 96.7989 885.507 95.904C883.585 95.0091 881.232 94.5617 878.448 94.5617C874.702 94.5617 871.554 95.3737 869.002 96.9977C866.483 98.6218 865.24 100.726 865.273 103.312C865.24 105.532 866.052 107.339 867.709 108.731C869.399 110.123 872.183 111.266 876.061 112.161L889.087 114.945C896.312 116.503 901.681 118.972 905.195 122.353C908.741 125.734 910.531 130.158 910.564 135.627C910.531 140.433 909.122 144.675 906.338 148.354C903.587 152 899.759 154.85 894.854 156.905C889.948 158.96 884.314 159.988 877.95 159.988C868.604 159.988 861.08 158.032 855.379 154.121C849.679 150.177 846.281 144.692 845.188 137.665L862.737 135.975C863.533 139.422 865.223 142.024 867.808 143.78C870.394 145.537 873.758 146.415 877.901 146.415C882.176 146.415 885.607 145.537 888.192 143.78C890.81 142.024 892.119 139.853 892.119 137.268C892.119 135.08 891.274 133.274 889.584 131.849C887.927 130.423 885.341 129.33 881.828 128.567L868.803 125.833C861.478 124.308 856.059 121.74 852.546 118.127C849.032 114.481 847.292 109.874 847.325 104.306C847.292 99.5995 848.568 95.5228 851.153 92.0759C853.772 88.5958 857.401 85.9111 862.041 84.0219C866.715 82.0995 872.1 81.1384 878.199 81.1384C887.148 81.1384 894.191 83.0441 899.328 86.8557C904.499 90.6673 907.697 95.8211 908.923 102.317Z" fill="#181818"/>
</svg>
