<svg width="602" height="320" viewBox="0 0 602 320" fill="none" xmlns="http://www.w3.org/2000/svg">
<rect x="95.8965" y="159.963" width="30.1753" height="30.1753" rx="7.54383" transform="rotate(-45 95.8965 159.963)" fill="#569AD8" fill-opacity="0.5"/>
<rect x="181.393" y="159.963" width="30.1753" height="30.1753" rx="7.54383" transform="rotate(-45 181.393 159.963)" fill="#EA9F00" fill-opacity="0.5"/>
<rect x="138.645" y="202.711" width="30.1753" height="30.1753" rx="7.54383" transform="rotate(-45 138.645 202.711)" fill="#53A692" fill-opacity="0.5"/>
<rect x="138.684" y="117.251" width="30.1753" height="30.1753" rx="7.54383" transform="rotate(-45 138.684 117.251)" fill="#7E69BE" fill-opacity="0.5"/>
<rect x="53.1484" y="160" width="30.1753" height="30.1753" rx="7.54383" transform="rotate(-45 53.1484 160)" fill="#569AD8"/>
<rect x="224.178" y="160.037" width="30.1753" height="30.1753" rx="7.54383" transform="rotate(-45 224.178 160.037)" fill="#F97316"/>
<rect x="95.8965" y="202.748" width="30.1753" height="30.1753" rx="7.54383" transform="rotate(-45 95.8965 202.748)" fill="#10B981"/>
<rect x="181.393" y="202.748" width="30.1753" height="30.1753" rx="7.54383" transform="rotate(-45 181.393 202.748)" fill="#EA9F00"/>
<rect x="95.8965" y="117.251" width="30.1753" height="30.1753" rx="7.54383" transform="rotate(-45 95.8965 117.251)" fill="#0284C7"/>
<rect x="138.645" y="245.497" width="30.1753" height="30.1753" rx="7.54383" transform="rotate(-45 138.645 245.497)" fill="#53A692"/>
<rect x="138.645" y="74.5032" width="30.1753" height="30.1753" rx="7.54383" transform="rotate(-45 138.645 74.5032)" fill="#9333EA"/>
<rect x="181.393" y="117.251" width="30.1753" height="30.1753" rx="7.54383" transform="rotate(-45 181.393 117.251)" fill="#E11D48"/>
<path opacity="0.8" d="M339.406 192H327.138L349.475 128.55H363.665L386.034 192H373.765L356.818 141.562H356.322L339.406 192ZM339.809 167.122H373.269V176.354H339.809V167.122ZM390.746 192V144.412H401.962V192H390.746ZM396.385 137.658C394.588 137.658 393.049 137.07 391.769 135.892C390.509 134.694 389.879 133.259 389.879 131.586C389.879 129.892 390.519 128.457 391.8 127.279C393.08 126.081 394.609 125.482 396.385 125.482C398.161 125.482 399.679 126.081 400.939 127.279C402.22 128.457 402.86 129.892 402.86 131.586C402.86 133.259 402.22 134.694 400.939 135.892C399.679 137.07 398.161 137.658 396.385 137.658ZM427.664 192.837C423.926 192.837 420.58 191.876 417.626 189.955C414.673 188.034 412.339 185.246 410.625 181.59C408.91 177.934 408.053 173.494 408.053 168.268C408.053 162.981 408.921 158.519 410.656 154.884C412.411 151.228 414.776 148.471 417.75 146.612C420.725 144.732 424.04 143.793 427.695 143.793C430.484 143.793 432.776 144.268 434.573 145.218C436.37 146.147 437.795 147.273 438.849 148.595C439.902 149.896 440.718 151.125 441.296 152.282H441.761V128.55H453.007V192H441.978V184.502H441.296C440.718 185.659 439.882 186.888 438.787 188.189C437.692 189.47 436.246 190.565 434.449 191.473C432.653 192.382 430.391 192.837 427.664 192.837ZM430.794 183.635C433.169 183.635 435.193 182.995 436.866 181.714C438.539 180.413 439.809 178.606 440.677 176.292C441.544 173.979 441.978 171.284 441.978 168.206C441.978 165.129 441.544 162.454 440.677 160.182C439.83 157.91 438.57 156.144 436.897 154.884C435.245 153.624 433.21 152.994 430.794 152.994C428.294 152.994 426.208 153.645 424.535 154.946C422.862 156.247 421.602 158.044 420.756 160.337C419.909 162.629 419.485 165.253 419.485 168.206C419.485 171.18 419.909 173.834 420.756 176.168C421.623 178.482 422.893 180.31 424.566 181.652C426.26 182.974 428.336 183.635 430.794 183.635ZM482.536 192.929C477.765 192.929 473.645 191.938 470.175 189.955C466.725 187.952 464.071 185.122 462.212 181.466C460.354 177.79 459.424 173.463 459.424 168.485C459.424 163.59 460.354 159.294 462.212 155.597C464.092 151.879 466.715 148.987 470.082 146.922C473.448 144.836 477.404 143.793 481.948 143.793C484.881 143.793 487.648 144.268 490.251 145.218C492.874 146.147 495.187 147.593 497.191 149.555C499.215 151.517 500.805 154.017 501.962 157.053C503.119 160.068 503.697 163.662 503.697 167.834V171.273H464.691V163.714H492.946C492.926 161.566 492.461 159.655 491.552 157.982C490.643 156.288 489.373 154.956 487.741 153.986C486.13 153.015 484.251 152.529 482.103 152.529C479.81 152.529 477.796 153.087 476.061 154.202C474.326 155.297 472.973 156.743 472.003 158.54C471.053 160.316 470.567 162.268 470.546 164.395V170.994C470.546 173.762 471.053 176.137 472.065 178.12C473.077 180.082 474.491 181.59 476.309 182.644C478.127 183.676 480.254 184.193 482.691 184.193C484.323 184.193 485.8 183.965 487.122 183.511C488.444 183.036 489.59 182.344 490.561 181.435C491.531 180.526 492.265 179.401 492.76 178.058L503.232 179.236C502.571 182.003 501.311 184.42 499.452 186.485C497.614 188.53 495.259 190.12 492.389 191.256C489.518 192.372 486.234 192.929 482.536 192.929Z" fill="#181818"/>
</svg>
