<svg width="602" height="320" viewBox="0 0 602 320" fill="none" xmlns="http://www.w3.org/2000/svg">
<rect x="95.8965" y="159.963" width="30.1753" height="30.1753" rx="7.54383" transform="rotate(-45 95.8965 159.963)" fill="#569AD8" fill-opacity="0.5"/>
<rect x="181.393" y="159.963" width="30.1753" height="30.1753" rx="7.54383" transform="rotate(-45 181.393 159.963)" fill="#EA9F00" fill-opacity="0.5"/>
<rect x="138.645" y="202.711" width="30.1753" height="30.1753" rx="7.54383" transform="rotate(-45 138.645 202.711)" fill="#53A692" fill-opacity="0.5"/>
<rect x="138.684" y="117.251" width="30.1753" height="30.1753" rx="7.54383" transform="rotate(-45 138.684 117.251)" fill="#7E69BE" fill-opacity="0.5"/>
<rect x="53.1484" y="160" width="30.1753" height="30.1753" rx="7.54383" transform="rotate(-45 53.1484 160)" fill="#569AD8"/>
<rect x="224.178" y="160.037" width="30.1753" height="30.1753" rx="7.54383" transform="rotate(-45 224.178 160.037)" fill="#F97316"/>
<rect x="95.8965" y="202.748" width="30.1753" height="30.1753" rx="7.54383" transform="rotate(-45 95.8965 202.748)" fill="#10B981"/>
<rect x="181.393" y="202.748" width="30.1753" height="30.1753" rx="7.54383" transform="rotate(-45 181.393 202.748)" fill="#EA9F00"/>
<rect x="95.8965" y="117.251" width="30.1753" height="30.1753" rx="7.54383" transform="rotate(-45 95.8965 117.251)" fill="#0284C7"/>
<rect x="138.645" y="245.497" width="30.1753" height="30.1753" rx="7.54383" transform="rotate(-45 138.645 245.497)" fill="#53A692"/>
<rect x="138.645" y="74.5032" width="30.1753" height="30.1753" rx="7.54383" transform="rotate(-45 138.645 74.5032)" fill="#9333EA"/>
<rect x="181.393" y="117.251" width="30.1753" height="30.1753" rx="7.54383" transform="rotate(-45 181.393 117.251)" fill="#E11D48"/>
<path opacity="0.8" d="M338.384 192H327.169L349.754 128.55H362.364L384.949 192H373.734L356.291 140.818H355.796L338.384 192ZM339.406 167.153H372.619V175.766H339.406V167.153ZM389.941 192V144.412H400.196V192H389.941ZM395.115 137.379C393.421 137.379 391.965 136.811 390.746 135.675C389.548 134.539 388.95 133.166 388.95 131.555C388.95 129.964 389.548 128.601 390.746 127.465C391.965 126.329 393.421 125.761 395.115 125.761C396.809 125.761 398.254 126.329 399.452 127.465C400.671 128.601 401.28 129.964 401.28 131.555C401.28 133.166 400.671 134.539 399.452 135.675C398.254 136.811 396.809 137.379 395.115 137.379ZM426.441 192.867C422.64 192.867 419.253 191.897 416.279 189.955C413.304 188.014 410.96 185.215 409.246 181.559C407.532 177.883 406.674 173.463 406.674 168.299C406.674 163.073 407.542 158.633 409.277 154.977C411.012 151.321 413.377 148.543 416.372 146.643C419.367 144.743 422.744 143.793 426.503 143.793C429.374 143.793 431.708 144.278 433.505 145.249C435.301 146.199 436.716 147.335 437.749 148.657C438.782 149.958 439.577 151.135 440.135 152.189H440.63V128.55H450.885V192H440.847V184.533H440.135C439.556 185.628 438.73 186.826 437.656 188.127C436.603 189.429 435.167 190.544 433.35 191.473C431.553 192.403 429.25 192.867 426.441 192.867ZM429.043 184.348C431.563 184.348 433.701 183.676 435.456 182.334C437.212 180.971 438.544 179.081 439.453 176.664C440.382 174.227 440.847 171.408 440.847 168.206C440.847 165.005 440.393 162.216 439.484 159.841C438.575 157.466 437.243 155.628 435.487 154.326C433.732 153.004 431.584 152.344 429.043 152.344C426.399 152.344 424.189 153.035 422.413 154.419C420.637 155.782 419.305 157.662 418.416 160.058C417.528 162.433 417.084 165.149 417.084 168.206C417.084 171.284 417.539 174.041 418.447 176.478C419.356 178.915 420.688 180.836 422.444 182.241C424.22 183.645 426.42 184.348 429.043 184.348ZM480.801 192.96C476.072 192.96 471.992 191.959 468.564 189.955C465.135 187.931 462.502 185.091 460.663 181.435C458.825 177.759 457.906 173.452 457.906 168.516C457.906 163.621 458.825 159.314 460.663 155.597C462.522 151.879 465.114 148.987 468.44 146.922C471.765 144.836 475.669 143.793 480.151 143.793C482.98 143.793 485.676 144.247 488.237 145.156C490.798 146.065 493.08 147.49 495.084 149.431C497.087 151.352 498.667 153.831 499.824 156.867C501.001 159.903 501.59 163.538 501.59 167.772V171.118H463.142V163.869H491.645C491.645 161.597 491.17 159.573 490.22 157.796C489.27 155.999 487.937 154.585 486.223 153.552C484.53 152.519 482.547 152.003 480.275 152.003C477.817 152.003 475.669 152.591 473.831 153.769C472.013 154.946 470.598 156.495 469.586 158.416C468.595 160.337 468.089 162.423 468.068 164.674V170.654C468.068 173.628 468.605 176.168 469.679 178.275C470.753 180.382 472.25 181.993 474.171 183.108C476.092 184.203 478.333 184.75 480.894 184.75C482.609 184.75 484.158 184.513 485.542 184.038C486.925 183.542 488.113 182.819 489.104 181.869C490.117 180.898 490.891 179.7 491.428 178.275L501.063 179.669C500.382 182.334 499.122 184.668 497.284 186.671C495.466 188.654 493.153 190.203 490.344 191.318C487.555 192.413 484.375 192.96 480.801 192.96Z" fill="white"/>
</svg>
